#!OML:ASF H:\ManfredETheater\Project 1\Capture day 1\Session 1\subject.ASF
:FULLY-SPECIFIED
:DEGREES
46
root 0.455932 15.3737 4.41932 -188.889 -0.13088 183.134
lowerback 19.4243 1.25679 0.604769
upperback 2.47703 1.52484 2.812
thorax -8.25803 0.540179 2.33661
lowerneck -14.2484 -2.73478 -3.69782
upperneck 6.85278 -3.28545 2.92589
head 4.4692 -1.54496 1.24049
rclavicle 7.70291e-015 2.62396e-014
rhumerus -48.2705 3.80197 -89.7312
rradius 107.24
rwrist -3.65008
rhand -24.2373 15.8585
rfingers 7.12502
rthumb 2.24814 -14.1094
lclavicle 7.70291e-015 2.62396e-014
lhumerus -77.4923 -5.61925 93.5365
lradius 103.996
lwrist 12.7185
lhand -23.0882 -12.8047
lfingers 7.12502
lthumb 3.35789 17.1486
rfemur -25.8126 -15.1459 20.342
rtibia 94.5753
rfoot -18.6504 -11.1953
rtoes -26.9141
lfemur -46.2586 -2.88168 -16.6138
ltibia 55.6261
lfoot -0.0111815 -3.47684
ltoes -4.56011
47
root 0.445104 15.2786 4.01364 -189.46 0.0405637 182.449
lowerback 19.7792 1.17151 0.150964
upperback 2.61382 1.28184 2.57457
thorax -8.29709 0.427068 2.40117
lowerneck -14.4225 -2.5242 -3.66247
upperneck 6.85931 -2.99222 2.79408
head 4.48674 -1.40731 1.21613
rclavicle -1.09332e-015 3.57812e-015
rhumerus -48.7859 2.70642 -89.8694
rradius 106.047
rwrist -3.9661
rhand -24.8543 15.5108
rfingers 7.12502
rthumb 1.65232 -14.4626
lclavicle -1.09332e-015 3.57812e-015
lhumerus -75.3976 -5.73769 93.7521
lradius 103.193
lwrist 12.888
lhand -23.3943 -12.6717
lfingers 7.12502
lthumb 3.06229 17.2861
rfemur -28.1994 -15.3447 19.8117
rtibia 95.0261
rfoot -19.3868 -11.0044
rtoes -28.0107
lfemur -46.2852 -2.62104 -17.5824
ltibia 59.0889
lfoot -1.31181 -3.42479
ltoes -3.78323
48
root 0.43226 15.1938 3.61024 -189.975 0.32998 181.921
lowerback 20.0063 0.446264 -0.296723
upperback 2.77891 1.28555 2.35513
thorax -8.24376 0.895087 2.34965
lowerneck -14.6468 -2.33351 -3.64581
upperneck 6.95747 -2.71524 2.61156
head 4.54123 -1.28077 1.17718
rclavicle 7.33018e-015 6.36111e-015
rhumerus -49.2671 1.64404 -89.8304
rradius 104.611
rwrist -4.33127
rhand -25.4612 15.1004
rfingers 7.12502
rthumb 1.06612 -14.8767
lclavicle 7.33018e-015 6.36111e-015
lhumerus -72.9883 -6.03098 93.9776
lradius 102.046
lwrist 12.9822
lhand -23.7021 -12.5576
lfingers 7.12502
lthumb 2.76507 17.4043
rfemur -30.6564 -15.2729 19.664
rtibia 94.9148
rfoot -19.9614 -10.8805
rtoes -29.0764
lfemur -46.1036 -2.23964 -18.3343
ltibia 62.3042
lfoot -3.17358 -3.26731
ltoes -3.39604
49
root 0.418308 15.1222 3.20983 -190.444 0.696357 181.57
lowerback 20.1452 0.377827 -0.275547
upperback 2.88864 1.19898 2.21555
thorax -8.19099 0.854873 2.20745
lowerneck -14.8904 -2.1604 -3.62128
upperneck 7.17399 -2.4555 2.36985
head 4.63589 -1.16605 1.11705
rclavicle -2.41026e-015 -1.31198e-014
rhumerus -49.7135 0.683068 -89.6269
rradius 102.957
rwrist -4.70908
rhand -26.0043 14.6765
rfingers 7.12502
rthumb 0.54157 -15.3025
lclavicle -2.41026e-015 -1.31198e-014
lhumerus -70.3922 -6.43662 94.183
lradius 100.618
lwrist 12.8167
lhand -24.0293 -12.4548
lfingers 7.12502
lthumb 2.44904 17.5109
rfemur -33.0782 -14.9855 19.8763
rtibia 94.2147
rfoot -20.3499 -10.8675
rtoes -30.0874
lfemur -45.71 -1.78319 -18.8476
ltibia 65.2305
lfoot -5.40572 -2.97654
ltoes -2.37098
50
root 0.403957 15.0606 2.81265 -190.875 1.07714 181.35
lowerback 20.2236 0.304933 -0.10121
upperback 2.95935 1.1408 2.12542
thorax -8.14869 0.823368 2.02442
lowerneck -15.088 -1.99799 -3.59092
upperneck 7.4507 -2.20906 2.10845
head 4.74292 -1.05974 1.04936
rclavicle -6.13748e-015 -2.82274e-014
rhumerus -50.115 -0.118242 -89.2903
rradius 101.144
rwrist -5.06266
rhand -26.4309 14.2962
rfingers 7.12502
rthumb 0.129595 -15.6835
lclavicle -6.13748e-015 -2.82274e-014
lhumerus -67.7328 -6.8706 94.3449
lradius 99.0078
lwrist 12.2304
lhand -24.4 -12.3388
lfingers 7.12502
lthumb 2.09106 17.6307
rfemur -35.3934 -14.5639 20.3286
rtibia 92.9633
rfoot -20.5657 -10.9589
rtoes -30.9811
lfemur -45.1107 -1.31765 -19.1882
ltibia 67.8764
lfoot -7.87003 -2.55414
ltoes -1.9804
51
root 0.391645 15.0039 2.41938 -191.256 1.41023 181.195
lowerback 20.2615 0.222032 0.106631
upperback 2.97608 1.07405 2.07381
thorax -8.1442 0.785009 1.86711
lowerneck -15.2297 -1.83975 -3.54508
upperneck 7.77169 -1.97148 1.84656
head 4.85588 -0.958394 0.978954
rclavicle -6.4605e-016 1.59028e-014
rhumerus -50.4806 -0.716038 -88.8658
rradius 99.2709
rwrist -5.37316
rhand -26.7104 14.0015
rfingers 7.12502
rthumb -0.140401 -15.9782
lclavicle -6.4605e-016 1.59028e-014
lhumerus -65.1331 -7.24986 94.454
lradius 97.3372
lwrist 11.1692
lhand -24.8172 -12.2342
lfingers 7.12502
lthumb 1.68807 17.7388
rfemur -37.5913 -14.0718 20.8981
rtibia 91.2316
rfoot -20.6229 -11.1177
rtoes -31.6809
lfemur -44.3542 -0.8979 -19.44
ltibia 70.2444
lfoot -10.3075 -2.03062
ltoes -1.55133
52
root 0.383564 14.9525 2.03033 -191.597 1.606 180.974
lowerback 20.28 0.122732 0.166598
upperback 2.93863 0.946503 2.02965
thorax -8.18917 0.718733 1.81945
lowerneck -15.3239 -1.69942 -3.46402
upperneck 8.11264 -1.73875 1.59057
head 4.96854 -0.847595 0.90586
rclavicle -3.85145e-015 1.23246e-014
rhumerus -50.8296 -1.08925 -88.4043
rradius 97.4552
rwrist -5.62005
rhand -26.8329 13.8212
rfingers 7.12502
rthumb -0.258684 -16.1584
lclavicle -3.85145e-015 1.23246e-014
lhumerus -62.6901 -7.50874 94.5104
lradius 95.7458
lwrist 9.73103
lhand -25.2752 -12.1377
lfingers 7.12502
lthumb 1.24581 17.8384
rfemur -39.6327 -13.5935 21.3709
rtibia 89.0731
rfoot -20.5249 -11.2366
rtoes -32.1857
lfemur -43.468 -0.607642 -19.7637
ltibia 72.3316
lfoot -12.6452 -1.51917
ltoes -1.40052
53
root 0.380926 14.9089 1.64496 -191.898 1.63121 180.63
lowerback 20.2655 0.00518655 0.000918968
upperback 2.86404 0.737109 1.97237
thorax -8.25652 0.616882 1.90927
lowerneck -15.4 -1.53668 -3.35872
upperneck 8.43696 -1.51714 1.36584
head 5.07423 -0.754241 0.836877
rclavicle 4.22417e-016 4.77083e-015
rhumerus -51.1744 -1.25033 -87.9489
rradius 95.8192
rwrist -5.79089
rhand -26.8163 13.7551
rfingers 7.12502
rthumb -0.242629 -16.2245
lclavicle 4.22417e-016 4.77083e-015
lhumerus -60.4514 -7.63167 94.5252
lradius 94.366
lwrist 8.1586
lhand -25.7374 -12.0691
lfingers 7.12502
lthumb 0.79935 17.9092
rfemur -41.4815 -13.1597 21.6371
rtibia 86.5123
rfoot -20.2407 -11.2248
rtoes -32.6009
lfemur -42.4485 -0.484555 -20.232
ltibia 74.1021
lfoot -14.858 -1.0316
ltoes -1.20905
54
root 0.383516 14.8783 1.26405 -192.15 1.49913 180.24
lowerback 20.2129 -0.147826 -0.302221
upperback 2.76425 0.446745 1.91795
thorax -8.32751 0.479119 2.10312
lowerneck -15.4501 -1.3708 -3.237
upperneck 8.67868 -1.29806 1.18016
head 5.15094 -0.658276 0.777785
rclavicle -2.48481e-015 -2.46493e-014
rhumerus -51.5351 -1.23021 -87.5242
rradius 94.4588
rwrist -5.87334
rhand -26.6943 13.7898
rfingers 7.12502
rthumb -0.124854 -16.1899
lclavicle -2.48481e-015 -2.46493e-014
lhumerus -58.439 -7.63143 94.5255
lradius 93.2994
lwrist 6.76918
lhand -26.1669 -11.9992
lfingers 7.12502
lthumb 0.38457 17.9802
rfemur -43.0762 -12.7651 21.7581
rtibia 83.5327
rfoot -19.6854 -10.9913
rtoes -32.9482
lfemur -41.2983 -0.492851 -20.7655
ltibia 75.5383
lfoot -16.9061 -0.606459
ltoes -1.00914
